<svg width="16" height="16" viewBox="0 0 16 16" fill="none" xmlns="http://www.w3.org/2000/svg">
<g clip-path="url(#clip0_1_478)">
<path fill-rule="evenodd" clip-rule="evenodd" d="M11.6154 1.56786L11.4559 1.56733C11.0311 1.56594 10.6113 1.65722 10.2213 1.83456C9.83133 2.01183 9.48046 2.27081 9.18742 2.59372C9.18739 2.59377 9.18745 2.59368 9.18742 2.59372L8.08526 3.80878L6.98262 2.59319C6.39004 1.9393 5.5752 1.56144 4.7147 1.56098C3.85421 1.56051 3.03897 1.93748 2.44579 2.59077C1.85442 3.24206 1.53233 4.11235 1.53193 5.00652C1.53153 5.90057 1.85277 6.77108 2.4434 7.42295C2.44334 7.42287 2.44346 7.42302 2.4434 7.42295L8.08492 13.6393L13.7207 7.42482C14.1633 6.93963 14.4587 6.328 14.5783 5.6711C14.6978 5.01471 14.6382 4.33331 14.4047 3.7106C14.1709 3.08712 13.7705 2.54432 13.2459 2.1583C12.7641 1.80379 12.2002 1.59849 11.6154 1.56786ZM14.7677 1.57819C14.533 1.30299 14.2695 1.0566 13.9815 0.844691C13.2355 0.295698 12.3586 0.00278708 11.4617 0.00286855C11.4611 0.00286861 11.4604 0.00286883 11.4598 0.00286919C11.4582 0.00287008 11.4566 0.00287189 11.4551 0.00287462L11.4598 0.00636445C11.4582 0.00635926 11.4566 0.00635501 11.4551 0.00635165C11.4544 0.00635028 11.4538 0.00634903 11.4531 0.00634798C10.8583 0.00536706 10.2692 0.133525 9.71927 0.383533C9.66453 0.408421 9.61026 0.434466 9.55654 0.461647C9.06861 0.70857 8.62391 1.04939 8.24356 1.46861L8.08526 1.6431L7.92699 1.46861C7.07545 0.528929 5.92019 0.000656285 4.71535 6.06558e-07C3.51048 -0.00065264 2.35476 0.526365 1.50239 1.46512C0.650016 2.40387 0.170822 3.67746 0.170228 5.0057C0.169635 6.33397 0.647687 7.60808 1.49922 8.54775L8.08526 15.8049L14.6618 8.55298C15.2994 7.85401 15.7343 6.96195 15.9113 5.99005C16.0882 5.01811 15.9993 4.01015 15.6557 3.09405C15.4444 2.53069 15.1427 2.0177 14.7677 1.57819Z" fill="#0F0F0F"/>
</g>
<defs>
<clipPath id="clip0_1_478">
<rect width="16" height="16" fill="white"/>
</clipPath>
</defs>
</svg>
